<?xml version="1.0" encoding="UTF-8" standalone="no"?>
<!-- Created with Inkscape (http://www.inkscape.org/) -->

<svg
   xmlns:dc="http://purl.org/dc/elements/1.1/"
   xmlns:cc="http://creativecommons.org/ns#"
   xmlns:rdf="http://www.w3.org/1999/02/22-rdf-syntax-ns#"
   xmlns:svg="http://www.w3.org/2000/svg"
   xmlns="http://www.w3.org/2000/svg"
   xmlns:sodipodi="http://sodipodi.sourceforge.net/DTD/sodipodi-0.dtd"
   xmlns:inkscape="http://www.inkscape.org/namespaces/inkscape"
   width="210mm"
   height="297mm"
   viewBox="0 0 744.09448819 1052.3622047"
   id="svg3374"
   version="1.1"
   inkscape:version="0.91 r13725"
   sodipodi:docname="babel.svg"
   inkscape:export-filename="/home/alumbreras/Documentos/Sites/elisavilches.github.io/img/babel.png"
   inkscape:export-xdpi="8.4099998"
   inkscape:export-ydpi="8.4099998">
  <defs
     id="defs3376" />
  <sodipodi:namedview
     id="base"
     pagecolor="#ffffff"
     bordercolor="#666666"
     borderopacity="1.0"
     inkscape:pageopacity="0.0"
     inkscape:pageshadow="2"
     inkscape:zoom="0.35"
     inkscape:cx="-277.85714"
     inkscape:cy="520"
     inkscape:document-units="px"
     inkscape:current-layer="layer1"
     showgrid="false"
     inkscape:window-width="1615"
     inkscape:window-height="1026"
     inkscape:window-x="65"
     inkscape:window-y="24"
     inkscape:window-maximized="1" />
  <metadata
     id="metadata3379">
    <rdf:RDF>
      <cc:Work
         rdf:about="">
        <dc:format>image/svg+xml</dc:format>
        <dc:type
           rdf:resource="http://purl.org/dc/dcmitype/StillImage" />
        <dc:title></dc:title>
      </cc:Work>
    </rdf:RDF>
  </metadata>
  <g
     inkscape:label="Capa 1"
     inkscape:groupmode="layer"
     id="layer1">
    <path
       d="m 220.16,630.75368 0.72025,1.8 0.71975,1.62 0.98975,1.62 0.99013,1.44 1.26025,1.26 1.35012,1.17 1.44,0.99 1.70988,0.72 1.98,0.54 2.16025,0.18 2.16012,0 2.06925,-0.45 233.01025,-98.82 1.89,-0.9 1.71,-0.72 1.80125,-0.81 1.70875,-0.72 1.71,-0.9 1.62,-0.9 1.53,-0.81 1.44,-0.99 1.44,-1.17 1.35,-1.17 1.26,-1.26 1.17125,-1.35 0.80875,-1.53 0.9,-1.8 0.54,-1.8 0.45,-2.07 0.27125,-2.16 0.17875,-2.16 -0.17875,-2.16 -0.0913,-2.25 -0.45,-2.16 -0.27,-2.07 -25.2,-73.17 -0.63,-1.8 -0.72,-1.89 -0.72,-1.89 -0.72,-1.71 -0.81,-1.71 -0.99,-1.44 -1.16875,-1.35 -1.35125,-1.26 -1.44,-0.99 -1.8,-0.63 -2.07,-0.45 -2.16,-0.09 -2.25,0 -2.15875,0.27 -2.07125,0.45 -171.72,67.5 -1.71,0.72 -1.62,0.9 -1.53,0.99 -1.62,0.9 -1.53,0.99 -1.62,0.81 -1.44,1.08 -1.44,1.08 -1.26,1.17 -1.35,1.35 -1.17,1.44 -0.99,1.44 -0.99,1.44 -0.9,1.53 -0.72,1.71 -0.72,1.8 -0.54,1.8 -30.24,98.64 -0.54,2.07 -0.63,1.89 -0.44963,1.8 -0.5405,2.07 -0.44975,1.89 -0.2695,1.89 -0.18025,2.16 0,2.16 0.44975,2.34 0.62988,1.89"
       style="fill:#231f20;fill-opacity:1;fill-rule:nonzero;stroke:none"
       id="path20"
       inkscape:connector-curvature="0" />
    <path
       d="m 286.94,449.04368 0.45,1.71 0.72,1.8 0.81,1.53 0.72,1.62 1.08,1.17 0.99,1.08 1.17,0.9 1.26,0.9 1.62,0.54 1.53,0.54 1.89,0.18 1.89,0.18 0.99,-0.18 0.72,-0.18 1.89,-0.27 1.53,-0.45 1.8,-0.54 102.24,-39.51 3.51,-1.35 1.53,-0.63 1.62,-0.54 1.44,-0.72 1.62,-0.63 1.44,-0.72 1.53,-0.54 1.44,-0.72 1.35,-0.9 1.26,-0.81 1.17,-0.99 1.17,-1.08 0.99,-1.08 0.81125,-1.35 0.71875,-1.26 0.45,-1.62 0.45,-1.71 0.27,-1.89 0.18,-1.98 -0.18,-2.07 -0.27,-1.8 -0.27,-1.89 -0.27,-1.71 -0.45,-1.8 -0.62875,-1.71 -25.29125,-69.66 -0.63,-1.62 -0.54,-1.53 -0.54,-1.62 -0.63,-1.44 -0.72,-1.44 -0.72,-1.44 -0.81,-1.44 -0.72,-1.26 -1.08,-1.17 -0.99,-1.17 -1.17,-0.99 -1.26,-0.72 -1.62,-0.72 -1.71,-0.27 -1.71,-0.18 -1.88875,0.18 -1.71125,0.27 -1.71,0.54 -1.62,0.63 -1.44,0.54 -2.61,1.08 -51.3,20.52 -1.44,0.54 -1.44,0.9 -1.26,0.72 -1.35,0.99 -1.17,0.9 -1.08,0.99 -1.08,1.17 -0.81,1.26 -0.9,1.35 -0.54,1.44 -0.72,1.53 -0.45,1.62 -0.54,1.53 -26.55,90.18 -0.54,1.62 -0.45,1.71 -0.45,1.53 -0.45,1.8 -0.36,1.71 -0.36,1.53 -0.27,1.62 0,3.33 0.18,1.71 0.27,1.71"
       style="fill:#231f20;fill-opacity:1;fill-rule:nonzero;stroke:none"
       id="path22"
       inkscape:connector-curvature="0" />
    <path
       d="m 524.45,566.85368 -0.54,-1.89 -0.72,-1.89 -0.63,-1.8 -0.72,-1.8 -0.81,-1.71 -0.9,-1.71 -0.98875,-1.44 -1.17125,-1.44 -1.16875,-1.26 -1.44125,-1.08 -1.52875,-0.81 -1.89125,-0.72 -1.89,-0.45 -1.98,0 -2.07,0.27 -1.98,0.45 -1.98,0.54 -1.89,0.63 -1.71,0.72 -1.89,0.72 -1.35,0.54 -290.15962,123.03 -1.80025,0.72 -1.08013,0.45 -0.72025,0.27 -1.79975,0.72 -1.7105,0.9 -1.43937,0.99 -1.53038,0.99 -1.3495,1.08 -1.26025,1.26 -1.35012,1.26 -0.98975,1.44 -0.99025,1.44 -0.98975,1.62 -0.89988,1.62 -0.72025,1.71 -0.81,1.71 -0.63,1.71 -17.28025,59.67 -0.5395,1.8 -0.63037,1.89 -0.35938,2.07 -0.36037,2.16 -0.0904,2.25 0,2.16 0.45075,2.34 0.5395,2.16 0.98975,1.71 0.99025,1.62 1.35012,1.26 1.43988,0.99 1.52987,0.9 1.79975,0.72 1.9805,0.45 2.15963,0.36 2.34037,0.18 162.98987,0 2.25,-0.18 2.16,-0.36 1.89,-0.63 1.62,-0.81 1.44,-1.17 1.26,-1.17 0.99,-1.62 0.9,-1.53 0.72,-1.71 0.54,-1.89 0.36,-2.07 0.36,-1.98 0.18,-1.98 0,-39.06 0.18,-2.43 0.27,-2.16 0.72,-1.89 0.72,-1.62 1.17,-1.44 1.26,-1.08 1.44,-1.08 1.71,-0.81 2.07,-0.63 1.98,-0.27 2.16,-0.09 2.16,0.09 1.98,0.45 1.8,0.54 1.44,0.81 0.18,0.09 1.44,0.99 1.26,1.17 1.08,1.62 0.72,1.71 0.54,1.98 0.27,2.34 0.18,2.25 0,33.84 0.27,2.52 0.18125,2.43 0.0888,2.25 0.45,2.34 0.54,1.98 0.63,1.8 0.81,1.71 1.08,1.53 0.99,1.35 1.26,1.26 1.44,0.99 1.71,0.72 1.89,0.45 1.71,0.27 1.89,0.18 175.41,0 2.16,-0.54 2.16125,-0.36 1.88875,-0.36 1.98,-0.63 1.89,-0.54 1.62,-0.9 1.44,-1.17 1.26,-1.26 0.99,-1.26 0.9,-1.8 0.72,-1.71 0.45,-2.16 0.27,-2.16 0.09,-1.98 0,-2.07 -0.09,-2.16 -0.17875,-2.16 -0.27125,-2.16 -0.45,-2.16 -0.45,-1.98 -0.54,-1.98 -0.54,-1.89 -0.63,-2.07 -0.54,-1.8 -65.7,-176.22"
       style="fill:#231f20;fill-opacity:1;fill-rule:nonzero;stroke:none"
       id="path32"
       inkscape:connector-curvature="0" />
  </g>
</svg>
